PathFileType	4	(X/Y/Z)	C:\Users\dbl\Desktop\20210112\20210112\bx_n_5_1801.trc
DataRate	CameraRate	NumFrames	NumMarkers	Units	OrigDataRate	OrigDataStartFrame	OrigNumFrames
50.00	50.00	       5	43	mm	50.00	1	       460
Frame#	Time	Top.Head			R.Acromium			L.Acromium			Sternum			R.ASIS			L.ASIS			V.Sacral			R.Thigh.Upper			R.Thigh.Front			R.Thigh.Rear			R.Knee.Lat			R.Knee.Med			R.Shank.Upper			R.Shank.Front			R.Shank.Rear			R.Ankle.Lat			R.Midfoot.Lat			R.Toe.Lat			R.Toe.Tip			R.Toe.Med			R.Ankle.Med			R.Midfoot.Sup			R.Heel			L.Thigh.Upper			L.Thigh.Front			L.Thigh.Rear			L.Knee.Lat			L.Knee.Med			L.Shank.Upper			L.Shank.Front			L.Shank.Rear			L.Ankle.Lat			L.Midfoot.Lat			L.Toe.Lat			L.Toe.Tip			L.Toe.Med			L.Ankle.Med			L.Midfoot.Sup			L.Heel			origin1 front left			origin2 front right			origin 3 back right			origin 4 back leftt			
		X1	Y1	Z1	X2	Y2	Z2	X3	Y3	Z3	X4	Y4	Z4	X5	Y5	Z5	X6	Y6	Z6	X7	Y7	Z7	X8	Y8	Z8	X9	Y9	Z9	X10	Y10	Z10	X11	Y11	Z11	X12	Y12	Z12	X13	Y13	Z13	X14	Y14	Z14	X15	Y15	Z15	X16	Y16	Z16	X17	Y17	Z17	X18	Y18	Z18	X19	Y19	Z19	X20	Y20	Z20	X21	Y21	Z21	X22	Y22	Z22	X23	Y23	Z23	X24	Y24	Z24	X25	Y25	Z25	X26	Y26	Z26	X27	Y27	Z27	X28	Y28	Z28	X29	Y29	Z29	X30	Y30	Z30	X31	Y31	Z31	X32	Y32	Z32	X33	Y33	Z33	X34	Y34	Z34	X35	Y35	Z35	X36	Y36	Z36	X37	Y37	Z37	X38	Y38	Z38	X39	Y39	Z39	X40	Y40	Z40	X41	Y41	Z41	X42	Y42	Z42	X43	Y43	Z43	

1	0.000	-626.89929	112.77592	1849.94678	-668.93134	-78.52718	1538.73999	-697.90826	282.85751	1533.35547	-592.13837	102.39674	1352.77393	-599.16858	-8.40401	1056.12183	-616.48059	239.38733	1068.47290	-806.23956	84.68988	1059.44641	-666.78192	-77.32489	875.10791	-589.72839	-11.66642	809.95343	-684.55267	-64.26038	759.73993	-699.07068	-36.35511	618.79370	-675.58752	71.87874	575.00604	-706.19684	-33.10625	570.81628	-654.96973	9.64879	519.26923	-753.53625	-41.92381	491.54254	-760.41315	-21.90759	208.02074	-649.57648	-70.24670	158.99744	-606.24841	-75.37991	156.45625	-549.98328	-27.89231	164.54503	-600.38678	24.76908	170.37219	-717.31073	66.19364	217.75748	-674.63971	51.40029	161.85947	-792.92804	37.52580	174.53204	-697.40527	282.59766	875.90515	-593.13428	226.22302	801.80212	-696.42133	265.74869	745.86597	-716.36597	244.29021	642.32758	-665.49994	143.04726	578.73071	-711.70337	242.28473	576.94733	-654.53735	204.92642	535.45520	-752.19202	251.07010	503.96786	-766.66748	227.51819	206.09676	-660.29114	298.83655	157.19817	-623.95514	306.73270	158.51001	-555.22461	255.98642	164.61017	-592.04279	219.16884	174.19118	-708.75098	154.01488	215.33496	-674.42218	172.06291	158.12300	-795.12433	178.21346	184.36122	-528.29700	304.66617	146.74078	-517.65057	-72.80411	143.22420	-875.85522	-78.73365	141.22168	-882.63434	296.18286	144.60838	
2	0.020	-623.07227	112.43864	1849.79382	-667.10229	-78.53048	1538.96777	-696.57379	282.81088	1533.79028	-591.94537	102.38881	1352.52979	-601.83759	-8.33111	1055.99585	-619.20331	238.99001	1068.34717	-809.08710	84.74426	1060.16907	-669.36621	-77.42704	875.26410	-591.43384	-12.21035	810.86688	-685.88562	-64.22910	759.83038	-698.79187	-36.38476	618.74866	-673.72668	71.87048	574.98810	-705.20349	-33.18478	570.68213	-653.65753	9.23207	519.02191	-753.00867	-41.67062	491.66061	-760.60742	-22.10598	208.09615	-649.74695	-70.36295	158.96587	-606.33807	-75.43877	156.39502	-550.28137	-28.10472	164.66026	-600.57037	24.59285	170.74515	-717.07263	65.96008	217.72148	-674.57831	51.17169	162.36687	-792.94336	37.42506	174.54723	-699.25726	282.31717	875.68451	-594.50262	225.76511	802.64276	-696.77118	265.69547	745.65588	-715.60217	244.45651	642.08862	-664.08179	143.09105	578.83600	-710.61407	242.27826	576.71271	-653.19135	205.07272	535.34930	-750.97449	251.01352	503.94495	-766.49579	227.70686	205.98441	-660.35474	298.89120	157.13362	-624.00671	306.86371	158.42451	-555.26746	256.02640	164.67854	-592.02277	219.32481	174.30374	-708.54315	154.08157	215.40115	-674.51123	172.11096	158.07597	-795.06067	178.19350	184.38467	-528.24249	304.63870	146.70764	-517.64105	-72.83956	143.26396	-875.86401	-78.69772	141.21573	-882.61096	296.18848	144.62698	
3	0.040	-619.02148	112.10551	1849.54749	-665.20074	-78.54292	1539.14014	-695.10547	282.76947	1534.20227	-591.73212	102.36948	1352.20166	-604.68121	-8.32319	1055.80713	-621.99268	238.56573	1068.20508	-812.03558	84.80580	1060.86865	-672.08569	-77.56962	875.39032	-593.17004	-12.82450	811.77728	-687.23926	-64.21620	759.86737	-698.33582	-36.47556	618.65143	-671.67200	71.74211	574.93042	-704.07422	-33.33876	570.52954	-652.20428	8.73118	518.73865	-752.32220	-41.46553	491.76965	-760.77020	-22.28182	208.17328	-649.89728	-70.48271	158.92125	-606.41235	-75.50362	156.33525	-550.56152	-28.30517	164.78096	-600.73950	24.43009	171.08298	-716.81036	65.71621	217.67361	-674.52301	50.93169	162.83583	-792.94061	37.32965	174.57933	-701.11169	282.10202	875.48291	-595.88373	225.29750	803.49561	-697.11139	265.67130	745.44226	-714.78619	244.63615	641.81628	-662.61322	143.16635	578.91943	-709.42877	242.32233	576.47876	-651.78430	205.24608	535.22858	-749.71576	250.98553	503.90961	-766.35272	227.87622	205.89754	-660.41571	298.93906	157.06902	-624.04688	306.99356	158.34085	-555.30829	256.06689	164.73012	-592.00909	219.46312	174.41463	-708.34277	154.16141	215.46318	-674.58130	172.16858	158.04529	-794.99799	178.18677	184.41051	-528.19476	304.61395	146.67252	-517.63538	-72.87019	143.29944	-875.87158	-78.67206	141.21492	-882.59082	296.18784	144.63963	
4	0.060	-614.56482	111.77950	1849.12109	-663.16492	-78.57036	1539.20618	-693.39075	282.73224	1534.55725	-591.48608	102.32675	1351.70984	-607.84772	-8.42606	1055.50085	-624.91077	238.09512	1068.02368	-815.17151	84.87616	1061.52222	-675.03528	-77.78941	875.45599	-594.96368	-13.56306	812.67694	-688.62152	-64.25105	759.80646	-697.57410	-36.68317	618.46075	-669.29449	71.39783	574.80432	-702.70679	-33.64317	570.34454	-650.51086	8.07932	518.38983	-751.35889	-41.35611	491.85733	-760.87665	-22.41978	208.24814	-650.01227	-70.60898	158.85414	-606.45953	-75.57830	156.27654	-550.81012	-28.48332	164.90709	-600.88202	24.28624	171.36313	-716.51385	65.45362	217.60583	-674.47900	50.67765	163.23283	-792.90955	37.24213	174.64120	-702.98413	281.99292	875.30981	-597.29065	224.81213	804.36682	-697.43274	265.70322	745.21698	-713.86871	244.84595	641.48315	-661.04858	143.30232	578.96533	-708.06836	242.45975	576.24268	-650.26373	205.46939	535.07544	-748.37640	251.01588	503.85126	-766.25702	228.01678	205.85065	-660.47229	298.97534	157.00302	-624.06787	307.11972	158.25908	-555.34845	256.10837	164.75537	-592.00800	219.57248	174.52419	-708.16003	154.26537	215.51524	-674.62164	172.24324	158.04614	-794.93726	178.20428	184.44153	-528.15979	304.59375	146.63594	-517.63525	-72.89302	143.32693	-875.87756	-78.66343	141.22191	-882.57660	296.17752	144.64363	
5	0.080	-609.58606	111.46192	1848.43909	-660.95038	-78.61356	1539.12085	-691.34979	282.69034	1534.80225	-591.20514	102.24847	1350.98218	-611.43475	-8.65456	1055.03467	-628.01367	237.56970	1067.76880	-818.55682	84.94801	1062.10608	-678.24738	-78.11556	875.43060	-596.83490	-14.45354	813.55133	-690.02112	-64.37925	759.61823	-696.45667	-37.05338	618.15302	-666.56891	70.78265	574.59973	-701.05579	-34.16431	570.11743	-648.54663	7.23790	517.95721	-750.06903	-41.38627	491.90674	-760.91510	-22.51670	208.30974	-650.08490	-70.74355	158.76115	-606.47595	-75.66417	156.21577	-551.02234	-28.63229	165.03122	-600.99158	24.15420	171.58276	-716.19318	65.16607	217.51631	-674.45068	50.41922	163.53500	-792.85138	37.16108	174.73759	-704.90955	281.99359	875.15759	-598.73627	224.30508	805.25360	-697.72571	265.81372	744.96448	-712.80487	245.10884	641.07178	-659.35016	143.52354	578.96613	-706.47876	242.72035	575.99548	-648.58984	205.75891	534.86908	-746.91815	251.13496	503.76215	-766.21002	228.13281	205.84233	-660.52350	298.99847	156.93291	-624.06775	307.23801	158.17686	-555.39380	256.15207	164.75533	-592.02423	219.65163	174.63515	-708.00677	154.40070	215.54869	-674.63306	172.33850	158.08978	-794.87909	178.25264	184.48114	-528.14087	304.57855	146.60204	-517.63959	-72.90730	143.34375	-875.88257	-78.67297	141.23555	-882.56982	296.15839	144.64078	
